<svg xmlns="http://www.w3.org/2000/svg" width="24" height="24" viewBox="0 0 24 24">
    <path fill="#FF9300" fill-rule="evenodd" d="M12.922 2.77c2.45 0 4.763.965 6.513 2.718.36.36.36.945 0 1.304L14.226 12l5.207 5.208c.361.36.361.945.001 1.305-1.75 1.753-4.063 2.718-6.513 2.718-5.09 0-9.23-4.14-9.23-9.23 0-5.091 4.14-9.231 9.23-9.231zm0 1.846C8.85 4.616 5.538 7.929 5.538 12c0 4.072 3.312 7.385 7.384 7.385 1.65 0 3.223-.55 4.516-1.563l-5.168-5.169a.919.919 0 0 1 0-1.305l5.168-5.17a7.286 7.286 0 0 0-4.516-1.562zm-1.384 1.846a1.385 1.385 0 1 1-.001 2.77 1.385 1.385 0 0 1 0-2.77z"/>
</svg>
