<svg width="170" height="34" viewBox="0 0 170 34" fill="none" xmlns="http://www.w3.org/2000/svg">
<g clip-path="url(#clip0_573_4400)">
<path d="M61.9285 2.04297H78.0424L46.9649 31.8678H30.8511L61.9285 2.04297Z" fill="#FF9E1B"/>
<path d="M17.9317 13.6262C18.747 13.6373 19.5477 13.8359 20.2666 14.2051C20.9856 14.5743 21.602 15.1036 22.0641 15.7485L26.0853 12.3029C24.2231 9.97118 21.3083 8.67578 17.6108 8.67578C11.539 8.67578 7.08643 12.5878 7.08643 18.1584C7.08643 23.7289 11.539 27.6403 17.6108 27.6403C21.3083 27.6403 24.2231 26.3449 26.0853 24.0132L22.0641 20.5676C21.6026 21.2124 20.9869 21.7418 20.2685 22.1113C19.5502 22.4809 18.7501 22.68 17.9353 22.6919C15.291 22.6919 13.5096 20.9307 13.5096 18.1584C13.5096 15.386 15.2903 13.6241 17.9353 13.6241" fill="white"/>
<path d="M103.331 9.09375H96.9619V27.2287H111.858V22.4884H103.331V9.09375Z" fill="white"/>
<path d="M119.98 9.09375H113.611V27.2287H119.98V9.09375Z" fill="white"/>
<path d="M156.103 9.09375V17.3292L148.921 9.09375H143.686V27.2287H149.893V18.9905L157.071 27.2287H162.308V9.09375H156.103Z" fill="white"/>
<path d="M131.833 8.32812C129.169 8.32812 126.614 9.34395 124.731 11.1521C122.847 12.9603 121.789 15.4127 121.789 17.9698C121.789 20.527 122.847 22.9794 124.731 24.7876C126.614 26.5957 129.169 27.6116 131.833 27.6116C134.496 27.6116 137.051 26.5957 138.934 24.7876C140.818 22.9794 141.876 20.527 141.876 17.9698C141.876 15.4127 140.818 12.9603 138.934 11.1521C137.051 9.34395 134.496 8.32812 131.833 8.32812ZM131.833 21.7241C130.795 21.7241 129.8 21.3285 129.067 20.6243C128.333 19.9201 127.921 18.965 127.921 17.9692C127.921 16.9733 128.333 16.0182 129.067 15.314C129.8 14.6098 130.795 14.2142 131.833 14.2142C132.87 14.2142 133.865 14.6098 134.598 15.314C135.332 16.0182 135.744 16.9733 135.744 17.9692C135.744 18.965 135.332 19.9201 134.598 20.6243C133.865 21.3285 132.87 21.7241 131.833 21.7241Z" fill="white"/>
<path d="M36.9761 8.32812C34.2265 8.32812 31.5896 9.37669 29.6454 11.2431C27.7011 13.1096 26.6089 15.641 26.6089 18.2806C26.6094 19.973 27.0606 21.6372 27.9196 23.1151C28.7786 24.5931 30.0169 25.8356 31.5169 26.7248L36.6552 21.7935C35.7368 21.7199 34.8806 21.3181 34.256 20.6676C33.6314 20.0171 33.2839 19.1653 33.2821 18.2806C33.2821 17.3408 33.671 16.4395 34.3632 15.775C35.0554 15.1105 35.9943 14.7371 36.9732 14.7371C37.8949 14.7388 38.7823 15.0726 39.4599 15.6724C40.1375 16.2721 40.556 17.0942 40.6325 17.976L45.77 13.0453C44.8444 11.6042 43.5502 10.4143 42.0105 9.58864C40.4708 8.76301 38.7368 8.32909 36.9732 8.32812" fill="white"/>
<path d="M57.7288 9.09375H48.4185V27.2287H57.7288C64.0429 27.2287 68.3885 23.7831 68.3885 18.1616C68.3885 12.54 64.0457 9.09375 57.7288 9.09375ZM57.4582 22.4619H54.7871V13.8612H57.4582C60.13 13.8612 61.9653 15.3892 61.9653 18.1616C61.9653 20.9339 60.1307 22.4619 57.4582 22.4619Z" fill="white"/>
<path d="M76.9685 20.2342H84.9563V15.8298H76.9685V13.7055H86.0635V9.09375H70.7075V27.2287H86.4134V22.6169H76.9685V20.2342Z" fill="white"/>
</g>
<defs>
<clipPath id="clip0_573_4400">
<rect width="155.226" height="29.8248" fill="white" transform="translate(7.0835 2.04297)"/>
</clipPath>
</defs>
</svg>
